<svg width="117" height="24" viewBox="0 0 117 24" fill="none" xmlns="http://www.w3.org/2000/svg">
<path d="M1.78107e-06 17.6546V6.34626C-0.000187147 6.28732 0.0146573 6.22932 0.0431213 6.17778C0.0715853 6.12623 0.112721 6.08287 0.162607 6.05181C0.212494 6.02075 0.26947 6.00304 0.328107 6.00036C0.386743 5.99768 0.445088 6.01011 0.49758 6.03649L10.8462 11.2331C10.8939 11.2571 10.9465 11.2695 10.9998 11.2695C11.0531 11.2695 11.1057 11.2571 11.1534 11.2331L21.5024 6.03649C21.5549 6.01011 21.6133 5.99768 21.6719 6.00036C21.7305 6.00304 21.7875 6.02075 21.8374 6.05181C21.8873 6.08287 21.9284 6.12623 21.9569 6.17778C21.9853 6.22932 22.0002 6.28732 22 6.34626V17.6546C22 17.7135 21.9851 17.7714 21.9566 17.8228C21.928 17.8742 21.8869 17.9175 21.837 17.9484C21.7872 17.9794 21.7302 17.997 21.6717 17.9997C21.6131 18.0023 21.5548 17.9899 21.5024 17.9635L20.8149 17.6184C20.7578 17.5897 20.7098 17.5456 20.6762 17.491C20.6427 17.4364 20.625 17.3736 20.625 17.3095V8.41715C20.6252 8.35821 20.6103 8.30021 20.5819 8.24867C20.5534 8.19712 20.5123 8.15376 20.4624 8.1227C20.4125 8.09164 20.3555 8.07393 20.2969 8.07125C20.2383 8.06856 20.1799 8.081 20.1274 8.10738L11.1538 12.6137C11.1061 12.6376 11.0535 12.6501 11.0002 12.6501C10.9469 12.6501 10.8943 12.6376 10.8466 12.6137L1.87258 8.10738C1.82009 8.081 1.76174 8.06856 1.70311 8.07125C1.64447 8.07393 1.58749 8.09164 1.53761 8.1227C1.48772 8.15376 1.44659 8.19712 1.41812 8.24867C1.38966 8.30021 1.37481 8.35821 1.375 8.41715V17.3095C1.37505 17.3736 1.3573 17.4364 1.32376 17.491C1.29021 17.5456 1.24219 17.5897 1.18508 17.6184L0.49758 17.9635C0.445153 17.9899 0.386887 18.0023 0.328322 17.9997C0.269756 17.997 0.212837 17.9794 0.162974 17.9484C0.113111 17.9175 0.0719614 17.8742 0.0434367 17.8228C0.014912 17.7714 -4.02057e-05 17.7135 1.78107e-06 17.6546Z" fill="white"/>
<path d="M10.6527 13.0365C10.6054 13.0125 10.5532 13 10.5002 13C10.4473 13 10.3951 13.0125 10.3477 13.0365L9.81738 13.3066L0.188635 18.1907C0.131951 18.2195 0.0842806 18.2637 0.0509638 18.3184C0.017647 18.3731 0 18.4361 0 18.5004C0 18.5647 0.017647 18.6278 0.0509638 18.6825C0.0842806 18.7372 0.131951 18.7814 0.188635 18.8101L10.3473 23.9635C10.3946 23.9875 10.4468 24 10.4998 24C10.5527 24 10.6049 23.9875 10.6523 23.9635L20.8114 18.8101C20.868 18.7814 20.9157 18.7372 20.949 18.6825C20.9824 18.6278 21 18.5647 21 18.5004C21 18.4361 20.9824 18.3731 20.949 18.3184C20.9157 18.2637 20.868 18.2195 20.8114 18.1907L11.1826 13.3066L10.6527 13.0365Z" fill="white"/>
<path d="M10.8495 0.0380723L2.18585 4.67841C2.13 4.70832 2.08304 4.7543 2.05021 4.81119C2.01739 4.86808 2 4.93363 2 5.00051C2 5.06738 2.01739 5.13293 2.05021 5.18982C2.08304 5.24671 2.13 5.29269 2.18585 5.3226L10.8495 9.96204C10.8962 9.987 10.9476 10 10.9998 10C11.052 10 11.1034 9.987 11.1501 9.96204L19.8141 5.3226C19.87 5.29269 19.917 5.24671 19.9498 5.18982C19.9826 5.13293 20 5.06738 20 5.00051C20 4.93363 19.9826 4.86808 19.9498 4.81119C19.917 4.7543 19.87 4.70832 19.8141 4.67841L11.1505 0.0380723C11.1038 0.0130355 11.0522 0 11 0C10.9478 0 10.8962 0.0130355 10.8495 0.0380723Z" fill="white"/>
<path d="M33.7665 19.1032V19.6483C33.7665 19.741 33.7302 19.8299 33.6655 19.8955C33.6009 19.961 33.5132 19.9978 33.4218 19.9978H32.3447C32.2533 19.9978 32.1656 19.961 32.101 19.8955C32.0363 19.8299 32 19.741 32 19.6483V3.34947C32 3.25679 32.0363 3.1679 32.101 3.10236C32.1656 3.03682 32.2533 3 32.3447 3H33.2348C33.3008 3.00003 33.3654 3.01928 33.4209 3.05544C33.4764 3.0916 33.5206 3.14316 33.548 3.204L33.6984 3.53687L39.184 16.1615C39.2109 16.2236 39.2551 16.2765 39.3111 16.3136C39.3671 16.3507 39.4326 16.3705 39.4996 16.3705C39.5665 16.3705 39.632 16.3507 39.688 16.3136C39.7441 16.2765 39.7883 16.2236 39.8152 16.1615L45.2796 3.53687L45.43 3.204C45.4575 3.14316 45.5016 3.0916 45.5571 3.05544C45.6126 3.01928 45.6772 3.00003 45.7432 3H46.6334C46.7248 3 46.8124 3.03682 46.8771 3.10236C46.9417 3.1679 46.978 3.25679 46.978 3.34947V3.89421L47 19.1027V19.6479C47 19.7406 46.9637 19.8295 46.899 19.895C46.8344 19.9606 46.7467 19.9974 46.6553 19.9974H45.5782C45.4868 19.9974 45.3991 19.9606 45.3345 19.895C45.2698 19.8295 45.2335 19.7406 45.2335 19.6479V19.1032L45.215 9.80201C45.215 9.42414 44.7044 9.31625 44.5545 9.66222L40.3188 19.4631L40.1685 19.796C40.141 19.8568 40.0969 19.9084 40.0414 19.9446C39.9858 19.9807 39.9212 20 39.8552 20H39.1504C39.0844 20 39.0198 19.9807 38.9643 19.9446C38.9087 19.9084 38.8646 19.8568 38.8371 19.796L38.6868 19.4631L34.4278 9.66484C34.2775 9.31887 33.7678 9.42764 33.7678 9.80594V19.1032H33.7665Z" fill="white"/>
<path d="M61.2825 16.2174H52.7175C52.6487 16.2174 52.5815 16.2372 52.5239 16.2742C52.4664 16.3113 52.421 16.3641 52.3934 16.4262L51.0382 19.4631L50.8837 19.796C50.8554 19.8568 50.8101 19.9084 50.753 19.9446C50.696 19.9807 50.6296 20 50.5618 20H49.354C49.2954 20 49.2378 19.9856 49.1862 19.9582C49.1346 19.9308 49.0907 19.8911 49.0585 19.8428C49.0262 19.7946 49.0066 19.7392 49.0014 19.6816C48.9962 19.624 49.0055 19.566 49.0286 19.5129L49.3611 18.7474L56.1615 3.53694L56.316 3.20403C56.3442 3.14318 56.3895 3.09161 56.4466 3.05545C56.5037 3.01928 56.57 3.00003 56.6378 3H57.3622C57.43 3.00003 57.4963 3.01928 57.5534 3.05545C57.6105 3.09161 57.6558 3.14318 57.684 3.20403L57.8385 3.53694L64.6389 18.7474L64.9714 19.5129C64.9945 19.566 65.0038 19.624 64.9986 19.6816C64.9934 19.7392 64.9738 19.7946 64.9415 19.8428C64.9093 19.8911 64.8654 19.9308 64.8138 19.9582C64.7622 19.9856 64.7046 20 64.646 20H63.4382C63.3704 20 63.304 19.9807 63.247 19.9446C63.1899 19.9084 63.1446 19.8568 63.1163 19.796L62.9609 19.4631L61.6062 16.4284C61.5789 16.366 61.5337 16.3128 61.4762 16.2753C61.4188 16.2378 61.3514 16.2177 61.2825 16.2174ZM60.4958 13.9377L57.3241 6.83288C57.2964 6.77085 57.251 6.71812 57.1934 6.6811C57.1359 6.64408 57.0687 6.62437 57 6.62437C56.9313 6.62437 56.8641 6.64408 56.8066 6.6811C56.749 6.71812 56.7036 6.77085 56.6759 6.83288L53.5042 13.9377C53.4805 13.9908 53.4706 14.049 53.4754 14.1069C53.4802 14.1648 53.4996 14.2206 53.5318 14.2693C53.564 14.318 53.6079 14.358 53.6597 14.3856C53.7114 14.4133 53.7694 14.4278 53.8283 14.4278H60.1717C60.2306 14.4278 60.2886 14.4133 60.3403 14.3856C60.3921 14.358 60.436 14.318 60.4682 14.2693C60.5004 14.2206 60.5198 14.1648 60.5246 14.1069C60.5294 14.049 60.5195 13.9908 60.4958 13.9377Z" fill="white"/>
<path d="M71.4189 3.00175H76.6498C76.7427 3.00175 76.8317 3.03857 76.8974 3.10411C76.9631 3.16964 77 3.25853 77 3.35122V4.44331C77 4.536 76.9631 4.62489 76.8974 4.69043C76.8317 4.75597 76.7427 4.79278 76.6498 4.79278H71.7691C71.6762 4.79278 71.5871 4.8296 71.5214 4.89514C71.4558 4.96068 71.4189 5.04957 71.4189 5.14226V19.6505C71.4189 19.7432 71.382 19.8321 71.3163 19.8976C71.2506 19.9632 71.1615 20 71.0687 20H69.9742C69.8814 20 69.7923 19.9632 69.7266 19.8976C69.6609 19.8321 69.624 19.7432 69.624 19.6505V5.14051C69.624 5.04782 69.5871 4.95893 69.5214 4.8934C69.4558 4.82786 69.3667 4.79104 69.2738 4.79104H64.3502C64.2573 4.79104 64.1683 4.75422 64.1026 4.68868C64.0369 4.62314 64 4.53425 64 4.44157V3.34947C64 3.25679 64.0369 3.1679 64.1026 3.10236C64.1683 3.03682 64.2573 3 64.3502 3H71.4189V3.00175Z" fill="white"/>
<path d="M83.2773 12.3168L80.9728 12.3451C80.9266 12.3457 80.8825 12.3643 80.85 12.3969C80.8176 12.4295 80.7994 12.4734 80.7994 12.5192V19.7593C80.7994 19.8055 80.7809 19.8498 80.748 19.8824C80.7151 19.9151 80.6704 19.9334 80.6238 19.9334H79.1756C79.129 19.9334 79.0843 19.9151 79.0514 19.8824C79.0185 19.8498 79 19.8055 79 19.7593V19.0422L79.0101 12.3577H79V10.5735H79.0127C79.0159 8.3529 79.0193 6.13216 79.0228 3.91127V3.19627C79.0228 3.1501 79.0413 3.10582 79.0742 3.07318C79.1072 3.04053 79.1518 3.02219 79.1984 3.02219H79.9216L86.3034 3C90.14 3 91.6063 5.36174 91.5839 7.72348C91.605 9.94291 89.4962 12.2785 85.8855 12.2677C85.8528 12.2693 85.8211 12.2801 85.7942 12.2987C85.7673 12.3173 85.7461 12.343 85.7332 12.3729C85.7203 12.4028 85.7161 12.4357 85.721 12.4679C85.726 12.5001 85.74 12.5302 85.7613 12.5549L91.9578 19.7128C91.9796 19.738 91.9936 19.7688 91.9983 19.8016C92.0029 19.8344 91.9981 19.8678 91.9843 19.898C91.9704 19.9281 91.9482 19.9538 91.9202 19.9718C91.8922 19.9899 91.8596 19.9997 91.8262 20H89.8745C89.8487 20 89.8232 19.9943 89.7998 19.9834C89.7764 19.9725 89.7558 19.9566 89.7393 19.9369L83.4195 12.3791C83.4022 12.3586 83.3804 12.3423 83.3557 12.3315C83.3311 12.3207 83.3042 12.3157 83.2773 12.3168ZM80.7994 10.3885C80.7994 10.4347 80.8179 10.479 80.8508 10.5116C80.8837 10.5443 80.9284 10.5626 80.9749 10.5626L85.3813 10.5091C88.1203 10.4512 89.8078 9.10519 89.7854 7.72391C89.8078 5.89614 88.8006 4.77903 86.3025 4.78295H80.9749C80.9284 4.78295 80.8837 4.80129 80.8508 4.83393C80.8179 4.86658 80.7994 4.91085 80.7994 4.95702V10.3881V10.3885Z" fill="white"/>
<path d="M94 3.89432V3.34952C94 3.25682 94.0411 3.16792 94.1143 3.10237C94.1875 3.03682 94.2867 3 94.3902 3H95.6098C95.7133 3 95.8125 3.03682 95.8857 3.10237C95.9589 3.16792 96 3.25682 96 3.34952V19.6505C96 19.7432 95.9589 19.8321 95.8857 19.8976C95.8125 19.9632 95.7133 20 95.6098 20H94.3902C94.2867 20 94.1875 19.9632 94.1143 19.8976C94.0411 19.8321 94 19.7432 94 19.6505V3.89432Z" fill="white"/>
<path d="M103.714 9.21844C103.746 9.26414 103.789 9.30143 103.839 9.32717C103.889 9.3529 103.944 9.36634 104 9.36634C104.056 9.36634 104.111 9.3529 104.161 9.32717C104.21 9.30143 104.253 9.26414 104.286 9.21844L108.41 3.38052L108.574 3.1481C108.607 3.10233 108.65 3.06498 108.699 3.03921C108.749 3.01343 108.804 2.99999 108.86 3H110.202C110.266 2.99999 110.329 3.01751 110.384 3.05064C110.438 3.08376 110.483 3.13124 110.513 3.1879C110.542 3.24456 110.556 3.30824 110.552 3.372C110.547 3.43577 110.526 3.49719 110.489 3.54959L109.888 4.40891L105.245 10.9817C105.203 11.0406 105.181 11.1111 105.181 11.1833C105.181 11.2555 105.203 11.3259 105.245 11.3849L110.336 18.5911L110.937 19.4504C110.974 19.5028 110.995 19.5642 110.999 19.628C111.003 19.6918 110.99 19.7554 110.96 19.8121C110.931 19.8688 110.886 19.9162 110.832 19.9494C110.777 19.9825 110.714 20 110.65 20H109.308C109.252 20 109.197 19.9866 109.147 19.9608C109.097 19.935 109.054 19.8977 109.022 19.8519L108.858 19.6195L104.286 13.1477C104.254 13.102 104.211 13.0647 104.161 13.0389C104.111 13.0132 104.056 12.9998 104 12.9998C103.944 12.9998 103.889 13.0132 103.839 13.0389C103.79 13.0647 103.747 13.102 103.714 13.1477L99.1418 19.6195L98.9778 19.8519C98.9455 19.8977 98.9027 19.935 98.8529 19.9608C98.8032 19.9866 98.7479 20 98.6919 20H97.3499C97.2859 20 97.2232 19.9825 97.1685 19.9494C97.1138 19.9162 97.0692 19.8688 97.0396 19.8121C97.0101 19.7554 96.9966 19.6918 97.0007 19.628C97.0048 19.5642 97.0264 19.5028 97.063 19.4504L97.666 18.5911L102.755 11.3827C102.797 11.3237 102.82 11.2533 102.82 11.1811C102.82 11.1089 102.797 11.0384 102.755 10.9795L98.112 4.40935L97.5112 3.55002C97.4746 3.49763 97.4531 3.43621 97.4489 3.37244C97.4448 3.30867 97.4583 3.245 97.4879 3.18834C97.5174 3.13168 97.562 3.0842 97.6167 3.05107C97.6714 3.01794 97.7341 3.00043 97.7981 3.00044H99.1401C99.1961 3.00042 99.2514 3.01387 99.3011 3.03964C99.3509 3.06542 99.3938 3.10276 99.4261 3.14854L99.59 3.38095L103.714 9.21844Z" fill="white"/>
</svg>
